<svg xmlns="http://www.w3.org/2000/svg" viewBox="0 0 339.75 93.18"><defs><style>.cls-1{fill:#fff;}</style></defs><title>CCA</title><g id="Layer_2" data-name="Layer 2"><g id="Layer_1-2" data-name="Layer 1"><path class="cls-1" d="M0,15C4.25,5.76,11.71,3.21,21.43,3.53c15.31.51,30.64.1,46,.15,10.15,0,17.12,7,17.15,17q.08,26.73,0,53.46c0,10.18-6.86,16.9-17.16,16.94-15.32,0-30.65-.35-45.95.15C11.72,91.57,4.22,89.07,0,79.78Zm39.69.56C38.1,20.4,37,24,35.73,27.49c-3.12,8.67-6.6,10.25-15,6.58-1.88-.82-3.42-2.44-5.2-3.75C12.88,34.84,10,39.13,7.79,43.76c-4.08,8.65.27,16.65,9.65,18.09,3.06.47,6.22.29,9.28.75a5.88,5.88,0,0,1,3.46,2.07c2,2.7,3.76,5.63,5.94,9,3.55-6.13,7.79-9.1,13.93-8.89,2.18.07,4.38.07,6.56,0,10.75-.31,20.94-11.74,20-22.5,0-.37-.5-.71-1.12-1.52-6.87,7-15.3,2.09-24.44,4.16L62.34,25.63C51.4,28.41,42.79,28.55,39.69,15.58Z"/><path class="cls-1" d="M339.75,91c-6.25,0-12.5-.05-18.74.17-3.53.12-5.69-1.14-6.42-4.65-.1-.45-.29-.89-.42-1.34-3.87-12.77-1.5-10.74-14.73-10.92-4.84-.07-9.69.08-14.52,0-3-.07-4.54,1.15-5.49,3.95-1.44,4.22-3.25,8.32-4.9,12.47-6.86.11-13.71.33-20.55.16-.54,0-1.78-3-1.39-4.12,3.66-11,7.54-21.84,11.5-32.7,5.79-15.84,11.83-31.58,17.48-47.46,1.44-4,3.5-5.92,7.81-5.64,3.74.24,7.5,0,11.25,0,7,0,7.63.43,10.1,7.24,4.42,12.19,8.77,24.4,13.2,36.58q6.81,18.7,13.76,37.36a46.58,46.58,0,0,0,2.06,4.2ZM304.93,55.9l-8.51-28.15-1.2.11c-2.79,9.15-5.58,18.31-8.55,28Z"/><path class="cls-1" d="M142.66,0c11.64,2.65,21,8.48,27.23,19,2.17,3.65,1.8,5.52-2.37,6.83-4.32,1.34-8.52,3.09-12.74,4.74-2.38.93-4.11.72-5.39-1.84-3.52-7-9.48-9.56-17.06-8.91s-12.15,5.13-14.57,11.62c-4.29,11.44-4.59,23,1.88,33.87,5.9,9.94,21.59,10.82,28.32,1.42,2.56-3.57,4.38-3.41,7.46-1.09a82.56,82.56,0,0,0,9.88,6.29c3.81,2.1,3.75,4.26,1,7.3C155.73,91,142.27,94.8,127.2,92.48,106.56,89.3,93.82,74.91,91.82,54.06c-1.29-13.58,0-26.52,8.39-37.91,5.46-7.43,12.48-12.62,21.59-14.76a35.78,35.78,0,0,0,4-1.39Z"/><path class="cls-1" d="M226.19,0c11.38,2.89,20.42,9,26.67,19.13,2.07,3.37,2.09,5.18-2,6.46-4.32,1.34-8.52,3.08-12.74,4.72-2.74,1.06-4.82.68-6.16-2.22-5.17-11.2-24.78-12-30.61,1.82-4.63,11-4.94,22-.37,32.76,5.47,12.89,22.1,14.45,30.57,3.13,1.67-2.23,2.9-2.82,5.28-1.17,3.85,2.66,7.83,5.15,11.83,7.59,3,1.8,3.19,3.52,1,6.36-16.67,21.39-59.37,20.21-71-9.8-7.18-18.51-6.85-37,5.42-53.95A34.46,34.46,0,0,1,201.28,2.45L208.35,0Z"/></g></g></svg>