<svg xmlns="http://www.w3.org/2000/svg" viewBox="0 0 22.48 22.82"><defs><style>.cls-1{fill:#d7ab48;}</style></defs><title>Contact</title><g id="Layer_2" data-name="Layer 2"><g id="Layer_1-2" data-name="Layer 1"><path class="cls-1" d="M1.39,22.82A1.39,1.39,0,0,1,0,21.43v-.07c.15-3,.78-8.32,3.27-9.52,3.53-1.7,4.81,1.23,7.93,1.25h0c3.15,0,4.42-3,8-1.26,2.51,1.21,3.12,6.52,3.27,9.53a1.39,1.39,0,0,1-1.32,1.46H1.39ZM11.24,11.6A5.68,5.68,0,0,1,5.69,5.8,5.68,5.68,0,0,1,11.24,0a5.68,5.68,0,0,1,5.55,5.8,5.68,5.68,0,0,1-5.55,5.8"/></g></g></svg>