<svg xmlns="http://www.w3.org/2000/svg" viewBox="0 0 24.5 25.09"><defs><style>.cls-1{fill:#d7ab48;}</style></defs><title>Date</title><g id="Layer_2" data-name="Layer 2"><g id="Layer_1-2" data-name="Layer 1"><path class="cls-1" d="M0,23.28a1.81,1.81,0,0,0,1.81,1.81H22.69a1.81,1.81,0,0,0,1.81-1.81V8.19H0Z"/><path class="cls-1" d="M20.75,2H19.27V.49A.48.48,0,0,0,18.79,0H17.48A.49.49,0,0,0,17,.49V2H7.51V.49A.49.49,0,0,0,7,0H5.72a.49.49,0,0,0-.49.49V2H3.76A3.76,3.76,0,0,0,0,5.72V8.39H2.28V5.72A1.48,1.48,0,0,1,3.76,4.24H5.23v.82a.49.49,0,0,0,.49.49H7a.49.49,0,0,0,.49-.49V4.24H17v.82a.49.49,0,0,0,.49.49h1.31a.48.48,0,0,0,.48-.49V4.24h1.48a1.47,1.47,0,0,1,1.47,1.48V8.39H24.5V5.72A3.76,3.76,0,0,0,20.75,2Z"/></g></g></svg>