<svg xmlns="http://www.w3.org/2000/svg" viewBox="0 0 73.74 73.74"><defs><style>.cls-1{fill:#db6f46;}.cls-2{fill:#fff;}</style></defs><title>Email</title><g id="Layer_2" data-name="Layer 2"><g id="Layer_1-2" data-name="Layer 1"><rect class="cls-1" width="73.74" height="73.74" rx="12" ry="12"/><path class="cls-2" d="M34.57,36a3.27,3.27,0,0,0,4.6,0L54.85,20.31a.91.91,0,0,0-.64-1.55H19.52a.91.91,0,0,0-.64,1.55Z"/><path class="cls-2" d="M58.08,23.54,42.39,39.22a7.82,7.82,0,0,1-11,0L15.66,23.54a.9.9,0,0,0-1.55.63V52.6a2.57,2.57,0,0,0,2.56,2.57h40.4a2.57,2.57,0,0,0,2.56-2.57V24.17A.9.9,0,0,0,58.08,23.54Z"/></g></g></svg>