<svg xmlns="http://www.w3.org/2000/svg" viewBox="0 0 88.32 88.32"><defs><style>.cls-1{fill:#fff;}</style></defs><title>FB_White with Negative</title><g id="Layer_2" data-name="Layer 2"><g id="Layer_1-2" data-name="Layer 1"><path class="cls-1" d="M76.32,0H12A12,12,0,0,0,0,12V76.32a12,12,0,0,0,12,12H48.66V52.8h-9V40.29h9c0-1,0-1.87,0-2.71a109.69,109.69,0,0,1,.67-11.49c.9-5.79,4.47-8.86,10.27-9.61.47-.06.93-.2,1.4-.3H73.72V28.8H68.18c-5.1,0-5.79.71-5.81,5.83v5.54H73.72c-.45,4.24-.88,8.26-1.33,12.5H62.33V88.32h14a12,12,0,0,0,12-12V12A12,12,0,0,0,76.32,0Z"/></g></g></svg>