<svg xmlns="http://www.w3.org/2000/svg" viewBox="0 0 88.32 88.32"><defs><style>.cls-1{fill:#fff;}</style></defs><title>Insta_White with Negative</title><g id="Layer_2" data-name="Layer 2"><g id="Layer_1-2" data-name="Layer 1"><path class="cls-1" d="M44.23,36.17a9.9,9.9,0,0,0-10,9.82,9.8,9.8,0,0,0,19.6.35A9.94,9.94,0,0,0,44.23,36.17Z"/><path class="cls-1" d="M63.84,24.18a12.4,12.4,0,0,0-6.64-2.06c-4.62-.22-9.25-.4-13.88-.4-4.45,0-8.9.18-13.33.44A9.84,9.84,0,0,0,20.5,30.1,22.51,22.51,0,0,0,20,34.88c-.08,5.43-.12,10.87-.07,16.31,0,3.34.16,6.68.42,10a9.7,9.7,0,0,0,7,8.25,19.63,19.63,0,0,0,4,.54c4.26.07,8.52,0,12.79,0s8.78,0,13.16,0a10.32,10.32,0,0,0,10.65-9.92c.09-1.85.25-3.7.28-5.55a210.15,210.15,0,0,0-.4-23.14A9.33,9.33,0,0,0,63.84,24.18Zm-20,37.21A15.28,15.28,0,0,1,28.7,46a15.34,15.34,0,1,1,30.67.14C59.54,54.53,52.14,61.53,43.8,61.39ZM59.88,33.71a3.39,3.39,0,0,1-3.56-3.62A3.51,3.51,0,0,1,60,26.53a3.73,3.73,0,0,1,3.65,3.67A3.58,3.58,0,0,1,59.88,33.71Z"/><path class="cls-1" d="M76.32,0H12A12,12,0,0,0,0,12V76.32a12,12,0,0,0,12,12H76.32a12,12,0,0,0,12-12V12A12,12,0,0,0,76.32,0ZM74,53.08a64.12,64.12,0,0,1-.82,9.4c-1.37,7.71-7.26,12.45-14.81,13a192.4,192.4,0,0,1-28.71,0c-7.37-.55-13.3-5.41-14.54-12.81a66.46,66.46,0,0,1-.76-8.1c-.13-3.08,0-6.18,0-9.27h.18c0-4.08-.06-8.16,0-12.24a23,23,0,0,1,.69-4.57A15.1,15.1,0,0,1,28.35,16.86c3.12-.37,6.27-.56,9.42-.62,5.31-.09,10.63-.06,15.95,0A29.37,29.37,0,0,1,63,17.63,14.5,14.5,0,0,1,73,28.86,58,58,0,0,1,74,39C74.1,43.68,74.09,48.39,74,53.08Z"/></g></g></svg>