<svg xmlns="http://www.w3.org/2000/svg" viewBox="0 0 73.74 73.74"><defs><style>.cls-1{fill:#7eb338;}.cls-2{fill:#fff;}</style></defs><title>Link</title><g id="Layer_2" data-name="Layer 2"><g id="Layer_1-2" data-name="Layer 1"><rect class="cls-1" width="73.74" height="73.74" rx="12" ry="12"/><path class="cls-2" d="M36,47.91l-3.63,3.63a5.94,5.94,0,0,1-8.4,0L22.37,50a6,6,0,0,1,0-8.4L28.92,35a6,6,0,0,1,8.4,0l1.79,1.79a2.81,2.81,0,0,0,4-4l-1.79-1.79a11.48,11.48,0,0,0-16.23,0l-6.66,6.6A11.48,11.48,0,0,0,15,45.78a11.33,11.33,0,0,0,3.36,8.11L20,55.46a11.48,11.48,0,0,0,16.23,0l3.64-3.64A2.75,2.75,0,1,0,36,47.91Z"/><path class="cls-2" d="M53.88,18.47a11.39,11.39,0,0,0-8.11-3.36,11.53,11.53,0,0,0-8.17,3.36l-3.19,3.19a2.81,2.81,0,1,0,4,4l3.19-3.19a6,6,0,0,1,8.4,0L51.53,24a5.93,5.93,0,0,1,0,8.39l-6.15,6.1a5.94,5.94,0,0,1-8.4,0l-1.4-1.4a2.81,2.81,0,0,0-4,4l1.4,1.4a11.44,11.44,0,0,0,8.11,3.36,11.27,11.27,0,0,0,8.12-3.36l6.1-6.1a11.48,11.48,0,0,0,3.36-8.12,11.33,11.33,0,0,0-3.36-8.11Z"/></g></g></svg>