<svg xmlns="http://www.w3.org/2000/svg" viewBox="0 0 88.32 88.32"><defs><style>.cls-1{fill:#fff;}</style></defs><title>YouTube_White with Negative</title><g id="Layer_2" data-name="Layer 2"><g id="Layer_1-2" data-name="Layer 1"><path class="cls-1" d="M38.39,53l15-8.52L38.39,36Z"/><path class="cls-1" d="M76.32,0H12A12,12,0,0,0,0,12V76.32a12,12,0,0,0,12,12H76.32a12,12,0,0,0,12-12V12A12,12,0,0,0,76.32,0ZM71.84,56.61c-.76,4.72-3.13,7.06-8.1,7.21-6.5.2-13,0-19.53,0v0c-6.44,0-12.89.16-19.32,0-5.51-.17-7.76-2.5-8.53-8a83.63,83.63,0,0,1,.08-23.33c.64-4.53,3.07-6.87,7.61-7.27a223.89,223.89,0,0,1,39.69,0c5.72.51,7.79,2.71,8.43,9.1A85.59,85.59,0,0,1,71.84,56.61Z"/></g></g></svg>